<?xml version="1.0" encoding="UTF-8" standalone="no"?>
<!DOCTYPE svg PUBLIC "-//W3C//DTD SVG 1.1//EN" "http://www.w3.org/Graphics/SVG/1.1/DTD/svg11.dtd">
<svg width="100%" height="100%" viewBox="0 0 480 480" version="1.1" xmlns="http://www.w3.org/2000/svg" xmlns:xlink="http://www.w3.org/1999/xlink" xml:space="preserve" xmlns:serif="http://www.serif.com/" style="fill-rule:evenodd;clip-rule:evenodd;stroke-linejoin:round;stroke-miterlimit:2;">
    <path d="M0,254.223L0,226.164C0.614,216.234 1.895,206.463 3.865,197.019L4.625,193.563C8.443,176.064 13.399,159.1 21.095,142.895L22,141C33.346,116.759 48.23,93.138 67.492,74.379L70,72C101.991,41.618 138.077,20.024 181.016,9.053L184.75,8.125C200.857,4.058 216.891,2.71 233.463,2.727C236.082,2.739 238.7,2.75 241.32,2.739C256.163,2.668 270.262,3.91 284.854,6.807L287.938,7.438C294.385,8.698 300.658,10.05 306.86,12.237C308.306,12.753 309.759,13.249 311.218,13.728C337.283,22.191 360.856,34.608 382.844,50.879C433.418,88.73 465.43,145.704 474.675,207.812L475,210C482.321,256.634 473.087,307.008 451.229,348.691L450,351C440.879,368.275 430.378,384.66 416.949,398.934C415.649,400.313 414.38,401.722 413.145,403.16C410.481,406.306 407.83,409.264 404.688,411.938C402.69,413.581 400.739,415.239 398.828,416.984C366.26,446.998 326.286,466.421 282.91,474.977L280.875,475.375C228.852,485.576 174.514,476.774 127.841,451.987L126,451C116.194,445.775 106.965,439.877 97.942,433.406L96,432C86.028,424.781 77.251,416.7 68.732,407.819L67,406C49.191,387.311 35.266,367.165 23.945,344.008L22,340C9.351,314.351 1.812,284.276 0,254.223Z" style="fill:rgb(236,56,65);"/>
    <g transform="matrix(1,0,0,1,393.207,184.25)">
        <path d="M0,0C7.555,5.085 11.957,12.241 14.793,20.75L14.793,35.75L-42.207,35.75C-36.131,46.229 -36.131,46.229 -26.195,51.352C-19.585,52.676 -15.114,51.649 -9.188,48.723C-7.207,47.75 -7.207,47.75 -4.207,46.75C-3.099,44.867 -3.099,44.867 -2.207,42.75C-1.547,41.76 -0.887,40.77 -0.207,39.75C3.051,39.457 3.051,39.457 6.918,39.563C8.84,39.603 8.84,39.603 10.801,39.645C11.788,39.679 12.776,39.714 13.793,39.75C12.097,48.608 6.353,55.404 -0.992,60.465C-10.228,65.824 -19.908,67.638 -30.348,64.938C-40.408,61.223 -48.581,54.57 -53.313,44.855C-57.03,36.106 -57.614,27.151 -54.645,18.063C-50.719,8.558 -44.276,1.622 -35.207,-3.25C-23.203,-7.424 -10.974,-6.216 0,0Z" style="fill:rgb(254,250,250);fill-rule:nonzero;"/>
    </g>
    <g transform="matrix(1,0,0,1,132,156)">
        <path d="M0,0C7.287,3.987 12.564,10.014 15,18C15.223,21.379 15.139,24.607 15,28L2,28C1.814,26.474 1.629,24.948 1.438,23.375C0.45,18.431 -1.1,16.069 -5.145,13.117C-10.001,10.193 -15.376,8.81 -21,10C-25.552,12.309 -29.155,14.733 -32,19C-32.588,23.502 -32.503,27.687 -30.875,31.938C-26.955,36.25 -21.808,37.444 -16.25,38.5C4.202,42.698 4.202,42.698 10.57,51.063C15.384,58.545 15.654,65.187 15,74C13.323,81.661 8.353,86.684 2,91C-7.426,96.009 -17.015,96.392 -27.188,93.5C-34.808,90.664 -40.743,85.973 -44.5,78.688C-46.838,72.941 -47.089,69.139 -47,63L-34,63C-33.773,64.361 -33.546,65.723 -33.313,67.125C-32.179,72.088 -30.821,74.594 -27,78C-20.616,80.381 -13.254,81.375 -6.656,79.242C-2.724,77.433 -0.575,76.174 1,72C1.719,67.405 1.396,63.855 -0.563,59.625C-5.255,54.571 -11.223,53.605 -17.813,52.625C-27.889,50.902 -36.748,47.524 -43,39C-46.606,32.644 -48.147,26.261 -47,19C-44.13,9.499 -38.893,4.175 -30.5,-0.703C-20.158,-6.068 -10.373,-4.874 0,0Z" style="fill:rgb(254,249,249);fill-rule:nonzero;"/>
    </g>
    <g transform="matrix(1,0,0,1,284.625,281.625)">
        <path d="M0,0C7.654,5.419 12.312,12.275 14.375,21.375L14.375,33.375L-38.625,33.375C-33.868,42.618 -33.868,42.618 -25.625,47.375C-19.027,48.37 -13.124,47.974 -7.266,44.664C-5.306,43.26 -5.306,43.26 -3.438,40.125C0.069,36.697 1.404,36.99 6.188,37C8.252,37.096 10.315,37.212 12.375,37.375C11.093,45.799 5.377,51.411 -1.289,56.348C-9.546,61.158 -18.308,61.867 -27.625,60.375C-31.423,59.227 -34.399,57.664 -37.625,55.375C-38.267,54.952 -38.909,54.529 -39.57,54.094C-45.417,49.74 -49.439,42.911 -51.273,35.895C-52.695,25.71 -51.888,16.692 -45.875,8.188C-33.86,-6.589 -16.43,-9.991 0,0Z" style="fill:rgb(254,248,248);fill-rule:nonzero;"/>
    </g>
    <g transform="matrix(1,0,0,1,276,178)">
        <path d="M0,0L13,0L13,72L0,72C-0.014,70.245 -0.014,70.245 -0.028,68.455C-0.068,64.086 -0.134,59.718 -0.208,55.35C-0.236,53.464 -0.257,51.579 -0.271,49.693C-0.293,46.972 -0.339,44.252 -0.391,41.531C-0.392,40.698 -0.393,39.864 -0.394,39.005C-0.559,32.316 -2.347,27.006 -6.816,21.941C-7.393,21.486 -7.969,21.031 -8.563,20.563C-9.141,20.089 -9.72,19.616 -10.316,19.129C-15.642,15.558 -22.904,16.426 -29,17C-34.151,18.635 -37.127,21.699 -40,26.188C-42.89,32.125 -43.125,37.357 -41.184,43.645C-38.824,49.129 -35.838,52.962 -30.66,55.996C-24.776,58.217 -18.273,58.42 -12.461,55.898C-10.53,54.697 -8.773,53.42 -7,52C-6.34,51.67 -5.68,51.34 -5,51C-4.892,53.27 -4.814,55.541 -4.75,57.813C-4.704,59.077 -4.657,60.342 -4.609,61.645C-5,65 -5,65 -6.641,66.824C-15.435,71.207 -26.642,71.785 -36.117,69.125C-38.624,67.938 -40.762,66.636 -43,65C-44.089,64.238 -44.089,64.238 -45.199,63.461C-51.807,58.306 -55.789,51.304 -57,43C-57.741,31.574 -57.214,22.987 -49.813,13.813C-44.395,7.962 -37.909,3.052 -29.754,2.691C-18.936,2.331 -11.186,2.727 -2,9L-2,11L0,11L0,0Z" style="fill:rgb(254,251,251);fill-rule:nonzero;"/>
    </g>
    <g transform="matrix(1,0,0,1,358,275)">
        <path d="M0,0L13,0L13,68L0,68C-0.009,66.891 -0.019,65.782 -0.028,64.639C-0.068,60.493 -0.134,56.349 -0.208,52.204C-0.236,50.416 -0.257,48.627 -0.271,46.839C-0.293,44.257 -0.339,41.676 -0.391,39.094C-0.392,38.304 -0.393,37.514 -0.394,36.7C-0.571,29.876 -2.493,24.443 -7.438,19.625C-13.422,15.83 -19.017,14.93 -26,16C-31.04,18.08 -34.838,21.059 -37.563,25.813C-39.685,30.947 -40.003,35.866 -38.305,41.172C-35.556,47.316 -31.241,51.365 -25,54C-18.013,55.022 -12.936,53.623 -7,50C-6.34,49.67 -5.68,49.34 -5,49L-5,62C-13.583,66.818 -22.237,67.472 -31.871,65.375C-39.082,62.855 -45.723,58.189 -49.414,51.398C-50.418,48.949 -51.273,46.544 -52,44C-52.191,43.37 -52.382,42.739 -52.578,42.09C-54.152,34.292 -53.984,25.032 -50,18C-44.808,11.167 -39.364,5.586 -31,3C-28.2,2.758 -25.547,2.619 -22.75,2.625C-21.994,2.626 -21.239,2.627 -20.46,2.628C-12.405,2.798 -7.395,5.204 -1,10C-0.67,6.7 -0.34,3.4 0,0Z" style="fill:rgb(254,249,249);fill-rule:nonzero;"/>
    </g>
    <g transform="matrix(1,0,0,1,199,254)">
        <path d="M0,0L12,0L12,23L29,23L29,35L12,35C12.051,39.752 12.114,44.501 12.208,49.252C12.236,50.867 12.257,52.481 12.271,54.096C12.292,56.423 12.339,58.748 12.391,61.074C12.392,61.792 12.393,62.51 12.394,63.25C12.535,68.097 13.579,70.579 17,74C21.044,76.636 25.287,76.584 30,77L30,89C20.329,89.409 13.16,88.312 5.605,81.988C-1.053,73.742 -0.529,65.512 -0.391,55.469C-0.383,53.866 -0.377,52.263 -0.373,50.66C-0.358,46.465 -0.319,42.27 -0.275,38.074C-0.234,33.784 -0.215,29.494 -0.195,25.203C-0.153,16.802 -0.084,8.401 0,0Z" style="fill:rgb(254,251,251);fill-rule:nonzero;"/>
    </g>
    <g transform="matrix(1,0,0,1,156,156)">
        <rect x="0" y="0" width="13" height="93" style="fill:rgb(254,254,254);fill-rule:nonzero;"/>
    </g>
    <g transform="matrix(1,0,0,1,174,179)">
        <path d="M0,0C21.488,-1.214 21.488,-1.214 31,6C36.351,10.972 37.72,17.604 38.171,24.692C38.23,27.663 38.225,30.627 38.195,33.598C38.192,34.673 38.19,35.747 38.187,36.855C38.176,40.258 38.151,43.66 38.125,47.063C38.115,49.382 38.106,51.702 38.098,54.021C38.076,59.681 38.041,65.341 38,71L24,71C23.986,68.669 23.986,68.669 23.972,66.29C23.932,60.527 23.866,54.765 23.792,49.003C23.764,46.508 23.743,44.013 23.729,41.519C23.708,37.934 23.661,34.35 23.609,30.766C23.608,29.649 23.607,28.532 23.606,27.381C23.586,26.341 23.566,25.3 23.546,24.228C23.537,23.313 23.528,22.398 23.519,21.455C22.838,18.232 21.534,17.043 19,15C15.287,13.762 11.687,13.644 7.813,13.438C7.063,13.394 6.313,13.351 5.541,13.307C3.694,13.201 1.847,13.1 0,13L0,0Z" style="fill:rgb(253,248,248);fill-rule:nonzero;"/>
    </g>
    <g transform="matrix(1,0,0,1,326.375,177.812)">
        <path d="M0,0C1.533,0.02 1.533,0.02 3.098,0.041C5.607,0.076 8.116,0.13 10.625,0.188L10.625,13.188C8.655,13.226 8.655,13.226 6.645,13.266C4.909,13.322 3.173,13.379 1.438,13.438C0.573,13.452 -0.291,13.466 -1.182,13.48C-6.468,13.683 -9.578,14.139 -13.375,18.188C-14.618,20.674 -14.533,22.405 -14.58,25.188C-14.6,26.229 -14.62,27.27 -14.641,28.342C-14.657,29.469 -14.674,30.597 -14.691,31.758C-14.712,32.909 -14.733,34.061 -14.754,35.247C-14.82,38.935 -14.879,42.624 -14.938,46.313C-14.981,48.809 -15.024,51.305 -15.068,53.801C-15.176,59.93 -15.277,66.059 -15.375,72.188L-28.375,72.188C-28.474,64.662 -28.547,57.137 -28.595,49.611C-28.615,47.053 -28.642,44.495 -28.677,41.938C-28.726,38.251 -28.748,34.566 -28.766,30.879C-28.797,29.177 -28.797,29.177 -28.828,27.44C-28.83,19.854 -28.009,13.091 -22.654,7.339C-20.954,5.77 -19.314,4.452 -17.375,3.188C-16.545,2.642 -15.715,2.097 -14.859,1.535C-9.879,-0.391 -5.286,-0.133 0,0Z" style="fill:rgb(254,251,251);fill-rule:nonzero;"/>
    </g>
    <g transform="matrix(1,0,0,1,383.438,193.562)">
        <path d="M0,0C3.948,2.35 7.105,5.56 9.563,9.438C10.057,11.418 10.057,11.418 10.563,13.438L-31.438,13.438C-29.889,7.242 -25.832,3.262 -20.813,-0.563C-14.141,-2.539 -6.461,-2.888 0,0Z" style="fill:rgb(236,61,68);fill-rule:nonzero;"/>
    </g>
    <g transform="matrix(1,0,0,1,278.051,291.57)">
        <path d="M0,0C4.103,3.009 5.723,5.524 6.949,10.43L-31.051,10.43C-29.771,4.03 -27.185,2.118 -22.051,-1.57C-14.353,-5.337 -7.124,-4.401 0,0Z" style="fill:rgb(236,60,67);fill-rule:nonzero;"/>
    </g>
</svg>
